<?xml version="1.0" encoding="UTF-8"?>
<svg id="Warstwa_1" data-name="Warstwa 1" xmlns="http://www.w3.org/2000/svg" viewBox="0 0 2124.51 422.6">
  <defs>
    <style>
      .cls-1 {
        fill: #fff;
      }

      .cls-2 {
        stroke-width: 47.72px;
      }

      .cls-2, .cls-3 {
        fill: none;
        stroke: #fff;
        stroke-miterlimit: 10;
      }

      .cls-3 {
        stroke-width: 51.02px;
      }
    </style>
  </defs>
  <path class="cls-2" d="M292.22,384.34V61.8c4.08-5.74,14.64-18.72,35.91-28.08,19.17-8.44,37.36-9.69,46.06-9.86h148c4.97,1.02,11.66,2.88,18.56,6.41,13.1,6.69,19.38,15.48,22.02,19.88,1.35,85.41,2.7,170.81,4.06,256.22-.4,3.52-2.44,16.4-16.8,26.36-8.18,5.67-16.96,8.04-22.02,9.07-58.71.58-117.42,1.15-176.12,1.73-5.19,1.43-16.06,5.05-24.91,13.39-5.7,5.37-8.46,10.71-9.85,14.26-2.02,13.12-8.74,20.33-12.75,23.76-4.73,4.06-6.87,3.89-7.58,3.75-4.77-.92-4.66-11.45-4.58-14.35Z"/>
  <path class="cls-2" d="M298.49,384.34V61.8c-4.08-5.74-14.64-18.72-35.91-28.08-19.17-8.44-37.36-9.69-46.06-9.86H68.52c-4.97,1.02-11.66,2.88-18.56,6.41-13.1,6.69-19.38,15.48-22.02,19.88-1.35,85.41-2.7,170.81-4.06,256.22.4,3.52,2.44,16.4,16.8,26.36,8.18,5.67,16.96,8.04,22.02,9.07,58.71.58,117.42,1.15,176.12,1.73,5.19,1.43,16.06,5.05,24.91,13.39,5.7,5.37,8.46,10.71,9.85,14.26,2.02,13.12,8.74,20.33,12.75,23.76,4.73,4.06,6.87,3.89,7.58,3.75,4.77-.92,4.66-11.45,4.58-14.35Z"/>
  <path class="cls-3" d="M412.02,342.32c-10.85-7.83-30.03-23.85-40.65-48.71-5.04-11.8-19.18-44.93,2.57-75.82,19.79-28.1,57.67-37.84,75.14-42.34,4.93-1.27,18.73-4.59,37.4-5.7,31-1.83,55.97,3.6,70.58,7.79"/>
  <path class="cls-2" d="M567.51,314.61c3.04,3.88,3.14,8.58,3.69,13.04.84,6.77,2.99,13.54,7.51,19.47s11.6,10.97,20.32,13.27"/>
  <g>
    <path class="cls-1" d="M638.88,154.55h64.93v29.62c6.49-12.17,15.83-20.29,25.57-25.16,9.74-5.28,21.51-7.31,33.68-7.31,1.62,0,4.46.41,12.99.81v61.28c-3.25-1.62-12.17-6.49-28-6.49-8.52,0-20.29,1.22-29.62,9.74-13.8,12.58-14.61,31.65-14.61,41.39v77.51h-64.93v-181.4Z"/>
    <path class="cls-1" d="M882.77,207.71v128.24h-64.93v-128.24h-20.7v-53.16h20.7v-59.65h64.93v59.65h36.93v53.16h-36.93Z"/>
    <path class="cls-1" d="M976.5,42.55c20.29,0,36.52,16.23,36.52,36.52s-16.23,36.52-36.52,36.52-36.52-16.23-36.52-36.52,16.23-36.52,36.52-36.52ZM1008.97,154.55v181.4h-64.93v-181.4h64.93Z"/>
    <path class="cls-1" d="M1190.36,331.89c-17.45,8.52-31.65,10.14-45.04,10.14-35.3,0-58.44-15.01-71.42-27.59-17.04-16.64-28-40.99-28-67.77s10.96-52.35,29.22-70.2c17.04-16.23,42.2-27.59,73.04-27.59,11.36,0,25.97,2.03,42.2,10.15v54.38c-8.52-6.09-19.88-11.77-33.68-11.77-15.42,0-25.16,6.09-31.65,12.58-8.93,8.93-12.58,20.7-12.58,31.25s3.65,21.91,11.36,30.44c6.09,6.49,16.64,13.8,33.28,13.8,9.33,0,21.51-2.03,33.28-12.17v54.38Z"/>
    <path class="cls-1" d="M1292.21,154.55v101.45c0,7.3,1.22,18.67,9.74,26.38,6.49,5.68,15.01,6.9,22.72,6.9,8.12,0,15.83-.81,23.13-7.71,8.12-8.12,9.33-17.45,9.33-25.57v-101.45h64.93v113.22c0,15.42-1.22,32.06-17.45,48.7-22.32,23.13-53.57,25.57-78.32,25.57-27.19,0-60.47-2.84-81.97-25.97-13.8-14.61-17.04-30.84-17.04-48.29v-113.22h64.93Z"/>
    <path class="cls-1" d="M1531.63,40.12v295.83h-64.93V40.12h64.93Z"/>
    <path class="cls-1" d="M1640.79,154.55v101.45c0,7.3,1.22,18.67,9.74,26.38,6.49,5.68,15.01,6.9,22.72,6.9,8.12,0,15.83-.81,23.13-7.71,8.12-8.12,9.33-17.45,9.33-25.57v-101.45h64.93v113.22c0,15.42-1.22,32.06-17.45,48.7-22.32,23.13-53.57,25.57-78.32,25.57-27.19,0-60.47-2.84-81.97-25.97-13.8-14.61-17.04-30.84-17.04-48.29v-113.22h64.93Z"/>
    <path class="cls-1" d="M1815.28,154.55h64.93v21.91c15.42-18.67,36.52-25.16,54.38-25.16,12.99,0,25.16,2.84,34.9,8.12,13.39,6.9,20.7,17.04,25.16,25.97,7.3-12.99,16.64-20.7,24.75-25.16,12.99-7.3,25.57-8.93,37.74-8.93,13.39,0,35.31,2.03,50.32,16.64,16.23,15.83,17.04,37.33,17.04,49.91v118.09h-64.93v-89.68c0-19.07-2.03-32.06-9.33-38.96-3.65-3.25-8.52-6.09-17.04-6.09-7.3,0-13.39,2.03-19.07,7.3-10.96,10.55-11.77,25.57-11.77,34.49v92.93h-64.93v-89.68c0-17.45-1.22-31.25-8.52-38.96-5.68-6.09-12.99-7.3-19.48-7.3-6.9,0-12.58,1.22-17.86,6.49-11.36,10.96-11.36,28.41-11.36,39.77v89.68h-64.93v-181.4Z"/>
  </g>
</svg>